<svg width="120" height="36" viewBox="0 0 120 36" fill="none" xmlns="http://www.w3.org/2000/svg">
<path d="M50.048 8.96C50.512 8.96 50.88 9.104 51.152 9.392C51.424 9.664 51.56 10.032 51.56 10.496V24.584C51.56 25.048 51.416 25.424 51.128 25.712C50.856 26 50.496 26.144 50.048 26.144C49.584 26.144 49.216 26 48.944 25.712C48.672 25.424 48.536 25.048 48.536 24.584V18.656H39.872V24.584C39.872 25.048 39.728 25.424 39.44 25.712C39.168 26 38.8 26.144 38.336 26.144C37.888 26.144 37.52 26 37.232 25.712C36.96 25.424 36.824 25.048 36.824 24.584V10.496C36.824 10.032 36.96 9.664 37.232 9.392C37.504 9.104 37.872 8.96 38.336 8.96C38.8 8.96 39.168 9.104 39.44 9.392C39.728 9.664 39.872 10.032 39.872 10.496V16.16H48.536V10.496C48.536 10.032 48.672 9.664 48.944 9.392C49.216 9.104 49.584 8.96 50.048 8.96ZM64.223 22.784C64.495 22.784 64.711 22.888 64.871 23.096C65.047 23.304 65.135 23.584 65.135 23.936C65.135 24.432 64.839 24.848 64.247 25.184C63.703 25.488 63.087 25.736 62.399 25.928C61.711 26.104 61.055 26.192 60.431 26.192C58.543 26.192 57.047 25.648 55.943 24.56C54.839 23.472 54.287 21.984 54.287 20.096C54.287 18.896 54.527 17.832 55.007 16.904C55.487 15.976 56.159 15.256 57.023 14.744C57.903 14.232 58.895 13.976 59.999 13.976C61.055 13.976 61.975 14.208 62.759 14.672C63.543 15.136 64.151 15.792 64.583 16.64C65.015 17.488 65.231 18.488 65.231 19.64C65.231 20.328 64.927 20.672 64.319 20.672H57.239C57.335 21.776 57.647 22.592 58.175 23.12C58.703 23.632 59.471 23.888 60.479 23.888C60.991 23.888 61.439 23.824 61.823 23.696C62.223 23.568 62.671 23.392 63.167 23.168C63.647 22.912 63.999 22.784 64.223 22.784ZM60.071 16.088C59.255 16.088 58.599 16.344 58.103 16.856C57.623 17.368 57.335 18.104 57.239 19.064H62.663C62.631 18.088 62.391 17.352 61.943 16.856C61.495 16.344 60.871 16.088 60.071 16.088ZM69.173 26.144C68.741 26.144 68.381 26.024 68.093 25.784C67.821 25.528 67.685 25.168 67.685 24.704V10.376C67.685 9.912 67.821 9.56 68.093 9.32C68.381 9.08 68.741 8.96 69.173 8.96C69.605 8.96 69.965 9.08 70.253 9.32C70.541 9.56 70.685 9.912 70.685 10.376V24.704C70.685 25.168 70.541 25.528 70.253 25.784C69.965 26.024 69.605 26.144 69.173 26.144ZM80.5228 13.976C81.5308 13.976 82.4268 14.232 83.2108 14.744C84.0108 15.256 84.6268 15.984 85.0588 16.928C85.5068 17.856 85.7308 18.928 85.7308 20.144C85.7308 21.36 85.5068 22.424 85.0588 23.336C84.6268 24.248 84.0188 24.952 83.2348 25.448C82.4508 25.944 81.5468 26.192 80.5228 26.192C79.6908 26.192 78.9468 26.016 78.2908 25.664C77.6348 25.312 77.1308 24.824 76.7788 24.2V29.096C76.7788 29.512 76.6428 29.84 76.3708 30.08C76.0988 30.32 75.7388 30.44 75.2908 30.44C74.8428 30.44 74.4748 30.312 74.1868 30.056C73.9148 29.8 73.7788 29.464 73.7788 29.048V15.44C73.7788 15.008 73.9068 14.664 74.1628 14.408C74.4348 14.152 74.7948 14.024 75.2428 14.024C75.6908 14.024 76.0508 14.152 76.3228 14.408C76.5948 14.664 76.7308 15.008 76.7308 15.44V16.04C77.0828 15.384 77.5868 14.88 78.2428 14.528C78.9148 14.16 79.6748 13.976 80.5228 13.976ZM79.7308 23.864C80.6748 23.864 81.4108 23.544 81.9388 22.904C82.4668 22.248 82.7308 21.328 82.7308 20.144C82.7308 18.928 82.4668 17.984 81.9388 17.312C81.4108 16.64 80.6748 16.304 79.7308 16.304C78.7708 16.304 78.0268 16.632 77.4988 17.288C76.9868 17.944 76.7308 18.88 76.7308 20.096C76.7308 21.296 76.9868 22.224 77.4988 22.88C78.0268 23.536 78.7708 23.864 79.7308 23.864ZM97.4808 22.784C97.7528 22.784 97.9688 22.888 98.1288 23.096C98.3048 23.304 98.3928 23.584 98.3928 23.936C98.3928 24.432 98.0968 24.848 97.5048 25.184C96.9608 25.488 96.3448 25.736 95.6568 25.928C94.9688 26.104 94.3128 26.192 93.6888 26.192C91.8008 26.192 90.3048 25.648 89.2008 24.56C88.0968 23.472 87.5448 21.984 87.5448 20.096C87.5448 18.896 87.7848 17.832 88.2648 16.904C88.7448 15.976 89.4168 15.256 90.2808 14.744C91.1608 14.232 92.1528 13.976 93.2568 13.976C94.3128 13.976 95.2328 14.208 96.0168 14.672C96.8008 15.136 97.4088 15.792 97.8408 16.64C98.2728 17.488 98.4888 18.488 98.4888 19.64C98.4888 20.328 98.1848 20.672 97.5768 20.672H90.4968C90.5928 21.776 90.9048 22.592 91.4328 23.12C91.9608 23.632 92.7288 23.888 93.7368 23.888C94.2488 23.888 94.6968 23.824 95.0808 23.696C95.4808 23.568 95.9288 23.392 96.4248 23.168C96.9048 22.912 97.2568 22.784 97.4808 22.784ZM93.3288 16.088C92.5128 16.088 91.8568 16.344 91.3608 16.856C90.8808 17.368 90.5928 18.104 90.4968 19.064H95.9208C95.8888 18.088 95.6488 17.352 95.2008 16.856C94.7528 16.344 94.1288 16.088 93.3288 16.088ZM106.875 23.912C107.675 23.96 108.075 24.32 108.075 24.992C108.075 25.376 107.915 25.672 107.595 25.88C107.291 26.072 106.851 26.152 106.275 26.12L105.627 26.072C102.939 25.88 101.595 24.44 101.595 21.752V16.52H100.395C99.9628 16.52 99.6268 16.424 99.3868 16.232C99.1627 16.04 99.0507 15.76 99.0507 15.392C99.0507 15.024 99.1627 14.744 99.3868 14.552C99.6268 14.36 99.9628 14.264 100.395 14.264H101.595V12.056C101.595 11.624 101.731 11.28 102.003 11.024C102.275 10.768 102.643 10.64 103.107 10.64C103.555 10.64 103.915 10.768 104.187 11.024C104.459 11.28 104.595 11.624 104.595 12.056V14.264H106.635C107.067 14.264 107.395 14.36 107.619 14.552C107.859 14.744 107.979 15.024 107.979 15.392C107.979 15.76 107.859 16.04 107.619 16.232C107.395 16.424 107.067 16.52 106.635 16.52H104.595V21.968C104.595 23.152 105.139 23.784 106.227 23.864L106.875 23.912ZM113.886 26.192C112.142 26.192 110.734 25.848 109.662 25.16C109.15 24.856 108.894 24.424 108.894 23.864C108.894 23.544 108.982 23.288 109.158 23.096C109.334 22.888 109.55 22.784 109.806 22.784C110.078 22.784 110.454 22.912 110.934 23.168C111.446 23.408 111.91 23.592 112.326 23.72C112.758 23.848 113.302 23.912 113.958 23.912C114.63 23.912 115.15 23.8 115.518 23.576C115.902 23.352 116.094 23.04 116.094 22.64C116.094 22.368 116.014 22.152 115.854 21.992C115.71 21.832 115.438 21.688 115.038 21.56C114.654 21.416 114.062 21.256 113.262 21.08C111.838 20.792 110.814 20.384 110.19 19.856C109.582 19.328 109.278 18.6 109.278 17.672C109.278 16.968 109.486 16.336 109.902 15.776C110.318 15.2 110.886 14.76 111.606 14.456C112.342 14.136 113.174 13.976 114.102 13.976C114.774 13.976 115.422 14.064 116.046 14.24C116.67 14.4 117.23 14.64 117.726 14.96C118.238 15.28 118.494 15.704 118.494 16.232C118.494 16.552 118.406 16.824 118.23 17.048C118.054 17.256 117.838 17.36 117.582 17.36C117.406 17.36 117.23 17.328 117.054 17.264C116.894 17.184 116.686 17.072 116.43 16.928C115.966 16.688 115.566 16.512 115.23 16.4C114.894 16.272 114.478 16.208 113.982 16.208C113.39 16.208 112.918 16.328 112.566 16.568C112.23 16.808 112.062 17.136 112.062 17.552C112.062 17.952 112.238 18.256 112.59 18.464C112.942 18.672 113.622 18.88 114.63 19.088C115.702 19.312 116.542 19.568 117.15 19.856C117.758 20.144 118.19 20.504 118.446 20.936C118.718 21.368 118.854 21.92 118.854 22.592C118.854 23.68 118.398 24.552 117.486 25.208C116.59 25.864 115.39 26.192 113.886 26.192Z" fill="#4A4A4A"/>
<g clip-path="url(#clip0)">
<path d="M20.1301 21.1902C20.5756 19.1538 19.9618 17.0581 18.488 15.5842C17.0141 14.1104 14.9184 13.4966 12.8821 13.9422L7.97513 15.0156C7.16105 15.1936 6.44112 15.6201 5.89355 16.2483C5.34584 16.8767 5.02202 17.648 4.95661 18.4792C4.89187 19.3103 5.09201 20.1227 5.53533 20.8288C5.97865 21.5348 6.62387 22.0678 7.40085 22.3703L7.45305 22.3904C9.39625 23.1635 10.9428 24.7208 11.7017 26.6712C11.8975 27.1743 12.1901 27.6222 12.5637 27.9958C12.7668 28.1989 12.9942 28.3801 13.2427 28.5364C13.9487 28.9799 14.7611 29.18 15.5924 29.1153C16.4234 29.0504 17.195 28.7266 17.8236 28.1789C18.4522 27.6312 18.8786 26.9114 19.0568 26.0971L20.1301 21.1902Z" fill="#4A4A4A"/>
<path d="M11.4855 12.5378C12.2748 12.889 13.1675 12.8627 13.9992 12.4636C14.7908 12.0839 15.4351 11.406 15.8134 10.5542C16.1911 9.70281 16.2621 8.77032 16.0132 7.92833C15.7517 7.04399 15.173 6.36384 14.3843 6.01399C12.7986 5.30902 10.8577 6.19876 10.0571 7.99819C9.42134 9.43186 9.69864 11.0155 10.6394 11.9562C10.8796 12.1964 11.1631 12.3947 11.4855 12.5378Z" fill="#4A4A4A"/>
<path d="M17.5474 13.9143C18.9792 15.346 21.4712 15.1838 23.1024 13.5525C24.7341 11.9209 24.8966 9.42862 23.4648 7.99684C22.0332 6.5652 19.541 6.72785 17.9094 8.35951C16.2781 9.99076 16.1158 12.4826 17.5474 13.9143Z" fill="#4A4A4A"/>
<path d="M21.305 19.1255L21.3051 19.1256C21.4523 19.419 21.642 19.6786 21.8658 19.9024C22.9099 20.9465 24.6875 21.2041 26.2438 20.4244C27.1397 19.9757 27.8359 19.2501 28.204 18.3814C28.5894 17.4721 28.5739 16.5168 28.1603 15.6913C27.7465 14.8656 26.9904 14.2814 26.0314 14.0458C25.1152 13.8207 24.1173 13.9441 23.2216 14.393C21.332 15.34 20.4722 17.463 21.305 19.1255V19.1255Z" fill="#4A4A4A"/>
<path d="M27.1186 24.2485L27.1186 24.2477C26.8606 22.531 25.0677 21.3704 23.1214 21.6608C21.1754 21.9525 19.8005 23.586 20.0565 25.3019C20.1497 25.9278 20.4472 26.4799 20.882 26.9148C21.6399 27.6726 22.8151 28.0742 24.0535 27.89C25.9994 27.5982 27.3744 25.9647 27.1186 24.2485V24.2485Z" fill="#4A4A4A"/>
</g>
<defs>
<clipPath id="clip0">
<rect x="17.6777" width="25" height="25" transform="rotate(45 17.6777 0)" fill="white"/>
</clipPath>
</defs>
</svg>
