<svg width="100" height="100" viewBox="0 0 100 100" fill="none" xmlns="http://www.w3.org/2000/svg">
<path d="M96.7799 82.9839C96.8432 82.4081 96.875 81.8292 96.875 81.25C96.8703 77.1074 95.2226 73.1358 92.2934 70.2066C89.3642 67.2774 85.3926 65.6297 81.25 65.625H79.6875C78.4443 65.625 77.2521 65.1311 76.373 64.252C75.4939 63.3729 75 62.1807 75 60.9375C75 59.6943 75.4939 58.502 76.373 57.6229C77.2521 56.7438 78.4443 56.25 79.6875 56.25H85.9375C87.3879 56.25 88.7789 55.6738 89.8045 54.6482C90.8301 53.6226 91.4063 52.2316 91.4063 50.7812C91.4063 49.3308 90.8301 47.9398 89.8045 46.9142C88.7789 45.8886 87.3879 45.3125 85.9375 45.3125H79.6875C76.3324 45.3169 73.0675 46.3994 70.3743 48.4003C67.6812 50.4013 65.7023 53.2147 64.7295 56.4257C63.6444 54.0797 62.355 51.8337 60.8762 49.7136C55.7603 42.3533 48.5004 36.7484 40.0848 33.6621C39.7854 33.5508 39.5271 33.3509 39.3444 33.0888C39.1617 32.8268 39.0634 32.5153 39.0625 32.1959V4.68746C39.0625 4.45002 39.0084 4.2157 38.9043 4.00231C38.8002 3.78892 38.6488 3.60206 38.4616 3.45593C38.2745 3.30981 38.0565 3.20826 37.8242 3.159C37.5919 3.10974 37.3515 3.11406 37.1211 3.17164L35.6641 3.53512C34.1267 3.91521 32.6951 4.63789 31.4763 5.64915C30.2575 6.66041 29.2831 7.93409 28.6258 9.37496H16.6868C16.0295 7.93409 15.0551 6.66041 13.8363 5.64915C12.6175 4.63789 11.1859 3.91521 9.64848 3.53512L8.19145 3.17164C7.9611 3.11406 7.72065 3.10974 7.48838 3.159C7.2561 3.20826 7.03811 3.30981 6.85096 3.45593C6.66381 3.60206 6.51242 3.78892 6.4083 4.00231C6.30417 4.2157 6.25005 4.45002 6.25005 4.68746V17.1875H9.37505V6.70601C10.4861 7.06216 11.4972 7.67601 12.3258 8.49745C13.1543 9.31889 13.7769 10.3246 14.1426 11.4326C14.2465 11.7435 14.4456 12.0139 14.7116 12.2055C14.9777 12.397 15.2972 12.5001 15.625 12.5H29.6875C30.0155 12.5 30.3352 12.3968 30.6012 12.2051C30.8673 12.0133 31.0663 11.7427 31.17 11.4316C31.5358 10.3238 32.1585 9.31826 32.987 8.49697C33.8156 7.67567 34.8266 7.06193 35.9375 6.70582V32.1959C35.94 33.154 36.2349 34.0887 36.7829 34.8747C37.3309 35.6607 38.1058 36.2607 39.004 36.5945C46.8132 39.4714 53.5524 44.674 58.3126 51.5005C63.0728 58.3271 65.625 66.4493 65.625 74.7716V93.75H29.8854C30.2336 92.4092 31.0165 91.2217 32.1117 90.3735C33.2068 89.5253 34.5523 89.0642 35.9375 89.0625H40.625C41.0394 89.0625 41.4369 88.8978 41.7299 88.6048C42.0229 88.3118 42.1875 87.9144 42.1875 87.5V79.6875C42.1917 75.9591 43.6747 72.3847 46.311 69.7484C48.9473 67.1121 52.5217 65.6291 56.25 65.625V62.5C51.6932 62.5051 47.3245 64.3176 44.1024 67.5398C40.8802 70.7619 39.0677 75.1306 39.0625 79.6875V85.9375H35.9375C33.6298 85.9358 31.4033 86.7889 29.6875 88.3322V59.375H26.5625V93.75H15.625V92.5564C15.6225 91.7961 15.833 91.0504 16.2327 90.4036C16.6324 89.7569 17.2052 89.2351 17.8864 88.8974C18.1459 88.7676 18.3642 88.5682 18.5167 88.3214C18.6692 88.0745 18.75 87.7901 18.75 87.5V59.375H15.625V86.6105C14.6582 87.2711 13.8679 88.1584 13.3232 89.1948C12.7784 90.2313 12.4958 91.3855 12.5 92.5564V93.75H6.25005V92.5564C6.24749 91.7961 6.45798 91.0504 6.85767 90.4036C7.25735 89.7569 7.83024 89.2351 8.51137 88.8974C8.77089 88.7676 8.98915 88.5682 9.14169 88.3214C9.29423 88.0745 9.37504 87.7901 9.37505 87.5V20.3125H6.25005V86.6105C5.28323 87.2711 4.49291 88.1584 3.94816 89.1948C3.40341 90.2313 3.12081 91.3855 3.12505 92.5564V95.3125C3.12505 95.7269 3.28967 96.1243 3.58269 96.4173C3.87572 96.7103 4.27315 96.875 4.68755 96.875H81.25C84.481 96.8718 87.6318 95.8689 90.2701 94.0039C92.9084 92.1388 94.9049 89.503 95.9856 86.4582L93.0391 85.4167C92.1744 87.8527 90.5771 89.9613 88.4664 91.4533C86.3556 92.9453 83.8349 93.7476 81.25 93.75H68.75V89.0625H81.25C83.3221 89.0625 85.3092 88.2393 86.7743 86.7742C88.2394 85.3091 89.0625 83.322 89.0625 81.25C89.0625 79.1779 88.2394 77.1908 86.7743 75.7257C85.3092 74.2606 83.3221 73.4375 81.25 73.4375H79.6875C76.3723 73.4375 73.1929 72.1205 70.8487 69.7763C68.5045 67.4321 67.1875 64.2527 67.1875 60.9375C67.1875 57.6222 68.5045 54.4428 70.8487 52.0986C73.1929 49.7544 76.3723 48.4375 79.6875 48.4375H85.9375C86.5592 48.4375 87.1553 48.6844 87.5948 49.1239C88.0344 49.5635 88.2813 50.1596 88.2813 50.7812C88.2813 51.4028 88.0344 51.999 87.5948 52.4385C87.1553 52.878 86.5592 53.125 85.9375 53.125H79.6875C77.6155 53.125 75.6284 53.9481 74.1633 55.4132C72.6982 56.8783 71.875 58.8655 71.875 60.9375C71.875 63.0095 72.6982 64.9966 74.1633 66.4617C75.6284 67.9268 77.6155 68.75 79.6875 68.75H81.25C84.5641 68.7537 87.7414 70.0718 90.0848 72.4152C92.4282 74.7586 93.7463 77.9359 93.75 81.25C93.75 81.7147 93.7244 82.179 93.6735 82.641L96.7799 82.9839ZM79.6875 76.5625H81.25C82.4932 76.5625 83.6855 77.0563 84.5646 77.9354C85.4437 78.8145 85.9375 80.0068 85.9375 81.25C85.9375 82.4932 85.4437 83.6854 84.5646 84.5645C83.6855 85.4436 82.4932 85.9375 81.25 85.9375H68.75V74.7716C68.75 73.843 68.7206 72.9185 68.6618 71.9982C70.1094 73.4464 71.8283 74.5949 73.7202 75.3781C75.6122 76.1613 77.6399 76.5637 79.6875 76.5625Z" fill="url(#paint0_linear)"/>
<path d="M15.625 21.875C17.3509 21.875 18.75 20.4759 18.75 18.75C18.75 17.0241 17.3509 15.625 15.625 15.625C13.8991 15.625 12.5 17.0241 12.5 18.75C12.5 20.4759 13.8991 21.875 15.625 21.875Z" fill="url(#paint1_linear)"/>
<path d="M29.6875 21.875C31.4134 21.875 32.8125 20.4759 32.8125 18.75C32.8125 17.0241 31.4134 15.625 29.6875 15.625C27.9616 15.625 26.5625 17.0241 26.5625 18.75C26.5625 20.4759 27.9616 21.875 29.6875 21.875Z" fill="url(#paint2_linear)"/>
<path d="M17.1875 31.25H18.75C19.9037 31.2511 21.017 30.8248 21.875 30.0535C22.733 30.8248 23.8463 31.2511 25 31.25H26.5625C27.8053 31.2486 28.9967 30.7543 29.8755 29.8755C30.7543 28.9967 31.2486 27.8053 31.25 26.5625H28.125C28.1245 26.9768 27.9598 27.3739 27.6668 27.6668C27.3739 27.9598 26.9768 28.1245 26.5625 28.125H25C24.5857 28.1245 24.1886 27.9598 23.8957 27.6668C23.6027 27.3739 23.438 26.9768 23.4375 26.5625C23.4375 26.5172 23.4346 26.4727 23.4307 26.4283C23.9531 26.2458 24.3941 25.8842 24.6753 25.4075C24.9566 24.9309 25.06 24.3701 24.9672 23.8245C24.8744 23.2789 24.5914 22.7838 24.1684 22.4269C23.7454 22.0701 23.2097 21.8745 22.6562 21.875H21.0938C20.5403 21.8745 20.0046 22.0701 19.5816 22.4269C19.1586 22.7838 18.8756 23.2789 18.7828 23.8245C18.69 24.3701 18.7934 24.9309 19.0747 25.4075C19.3559 25.8842 19.7969 26.2458 20.3193 26.4283C20.3154 26.4727 20.3125 26.5172 20.3125 26.5625C20.312 26.9768 20.1473 27.3739 19.8543 27.6668C19.5614 27.9598 19.1643 28.1245 18.75 28.125H17.1875C16.7732 28.1245 16.3761 27.9598 16.0832 27.6668C15.7902 27.3739 15.6255 26.9768 15.625 26.5625H12.5C12.5014 27.8053 12.9957 28.9967 13.8745 29.8755C14.7533 30.7543 15.9447 31.2486 17.1875 31.25Z" fill="url(#paint3_linear)"/>
<defs>
<linearGradient id="paint0_linear" x1="50" y1="3.125" x2="50" y2="96.875" gradientUnits="userSpaceOnUse">
<stop stop-color="#03B898"/>
<stop offset="1" stop-color="#3DCC8E"/>
</linearGradient>
<linearGradient id="paint1_linear" x1="15.625" y1="15.625" x2="15.625" y2="21.875" gradientUnits="userSpaceOnUse">
<stop stop-color="#03B898"/>
<stop offset="1" stop-color="#3DCC8E"/>
</linearGradient>
<linearGradient id="paint2_linear" x1="29.6875" y1="15.625" x2="29.6875" y2="21.875" gradientUnits="userSpaceOnUse">
<stop stop-color="#03B898"/>
<stop offset="1" stop-color="#3DCC8E"/>
</linearGradient>
<linearGradient id="paint3_linear" x1="21.875" y1="21.875" x2="21.875" y2="31.25" gradientUnits="userSpaceOnUse">
<stop stop-color="#03B898"/>
<stop offset="1" stop-color="#3DCC8E"/>
</linearGradient>
</defs>
</svg>
