<svg width="100" height="100" viewBox="0 0 100 100" fill="none" xmlns="http://www.w3.org/2000/svg">
<path d="M93.7715 29.6875C92.9581 29.6877 92.1773 30.0075 91.5975 30.578C87.4688 34.5989 81.5205 35.7342 79.9357 35.9725C77.931 34.9215 75.701 34.3733 73.4375 34.375H46.2369L30.383 5.51429C29.9747 4.78982 29.3813 4.18683 28.6634 3.76702C27.9456 3.34721 27.1291 3.12566 26.2975 3.12503H16.3719C15.387 3.12174 14.421 3.39447 13.5832 3.9123C12.7455 4.43012 12.0696 5.17231 11.6322 6.05472L9.97207 9.37503H6.25C5.4215 9.37601 4.62721 9.70557 4.04138 10.2914C3.45554 10.8772 3.12598 11.6715 3.125 12.5V20.3125C3.12645 21.5553 3.62077 22.7467 4.49954 23.6255C5.3783 24.5043 6.56974 24.9986 7.8125 25H14.5422L18.75 36.2209V53.125C18.75 53.3124 18.7837 53.4982 18.8494 53.6737L23.1137 65.0448L15.5053 65.6295C15.1871 65.654 14.8841 65.7753 14.6369 65.977C14.3898 66.1788 14.2103 66.4514 14.1227 66.7582L11.3213 76.5625H6.25V72.1584L10.4936 60.8422L17.3537 60.2184L17.0703 57.1063L9.2332 57.819C8.94048 57.8456 8.66119 57.9543 8.42744 58.1325C8.19368 58.3107 8.01493 58.5512 7.91172 58.8264L3.22422 71.3264C3.15852 71.5018 3.12491 71.6877 3.125 71.875V78.125C3.125 78.5394 3.28962 78.9369 3.58265 79.2299C3.87567 79.5229 4.2731 79.6875 4.6875 79.6875H12.5C12.8395 79.6875 13.1697 79.577 13.4408 79.3726C13.7119 79.1682 13.909 78.8811 14.0023 78.5547L16.8287 68.6621L23.4375 68.1543V73.3594L21.9383 88.3518L19.2076 91.0826C19.0625 91.2277 18.9474 91.4 18.8689 91.5896C18.7904 91.7792 18.75 91.9823 18.75 92.1875V95.3125C18.75 95.7269 18.9146 96.1244 19.2076 96.4174C19.5007 96.7104 19.8981 96.875 20.3125 96.875H29.6875C30.027 96.875 30.3572 96.7645 30.6283 96.5601C30.8994 96.3557 31.0965 96.0686 31.1898 95.7422L37.4398 73.8672C37.4797 73.7275 37.5 73.5829 37.5 73.4375V67.1875H45.3125C45.5043 67.1875 45.6944 67.1522 45.8734 67.0834L64.6516 59.861C65.7036 62.7254 67.3342 65.3425 69.4417 67.5493C71.5493 69.7561 74.0886 71.5054 76.9016 72.6881L70.7059 93.75H64.0625V92.8346L66.7299 90.1674C66.94 89.9572 67.0859 89.6915 67.1504 89.4014L70.2754 75.3389C70.3214 75.1317 70.3248 74.9174 70.2852 74.7089C70.2457 74.5004 70.1641 74.3021 70.0454 74.1262C69.9267 73.9503 69.7734 73.8004 69.5949 73.6856C69.4164 73.5709 69.2164 73.4937 69.007 73.4588C66.9779 73.1196 65.0902 72.2004 63.5717 70.8123C62.0532 69.4242 60.9688 67.6264 60.4492 65.6358L57.4248 66.4217C58.0259 68.7261 59.2136 70.8355 60.8721 72.5446C62.5306 74.2536 64.6034 75.504 66.8887 76.174L64.1992 88.2793L61.3959 91.0826C61.2507 91.2277 61.1354 91.3999 61.0568 91.5895C60.9781 91.7791 60.9376 91.9823 60.9375 92.1875V95.3125C60.9375 95.7269 61.1021 96.1244 61.3951 96.4174C61.6882 96.7104 62.0856 96.875 62.5 96.875H71.875C72.2125 96.875 72.5409 96.7658 72.8111 96.5636C73.0813 96.3615 73.2788 96.0773 73.374 95.7535L79.8572 73.7135L82.5451 74.52L79.5898 88.3145L76.9809 91.1244C76.7122 91.4133 76.5628 91.7931 76.5625 92.1875V95.3125C76.5625 95.7269 76.7271 96.1244 77.0201 96.4174C77.3132 96.7104 77.7106 96.875 78.125 96.875H87.5C87.833 96.875 88.1573 96.7687 88.4256 96.5714C88.6938 96.3742 88.8921 96.0964 88.9914 95.7785L93.0273 82.8643L90.0445 81.9321L86.3514 93.75H79.6875V92.8012L82.1717 90.1254C82.3632 89.9191 82.4955 89.6649 82.5545 89.3897L85.9027 73.7647C85.985 73.3807 85.9197 72.9799 85.7198 72.6419C85.52 72.3039 85.2001 72.0535 84.824 71.9407L80.0943 70.5219C77.0039 69.6026 74.1955 67.918 71.9296 65.6241C69.6637 63.3302 68.0137 60.5014 67.1324 57.3998L65.5783 51.1834L62.5467 51.9412L63.7738 56.8502L45.0225 64.0625H37.5V56.25H34.375V73.2188L28.509 93.75H21.875V92.8346L24.5424 90.1674C24.7972 89.9123 24.9559 89.5768 24.9916 89.218L26.5541 73.593C26.5594 73.5411 26.562 73.4889 26.5619 73.4368V65.625C26.5619 65.4377 26.5283 65.2518 26.4625 65.0764L21.875 52.8416V35.9375C21.875 35.7502 21.8413 35.5643 21.7756 35.3889L17.0881 22.8889C16.9764 22.5911 16.7765 22.3344 16.515 22.1532C16.2536 21.9721 15.9431 21.875 15.625 21.875H7.8125C7.39824 21.8746 7.00108 21.7098 6.70816 21.4169C6.41523 21.1239 6.25047 20.7268 6.25 20.3125V12.5H10.9375C11.2277 12.5 11.5121 12.4192 11.7589 12.2667C12.0057 12.1141 12.2052 11.8959 12.335 11.6364L14.4273 7.45179C14.6068 7.08982 14.8842 6.78538 15.2278 6.57297C15.5715 6.36057 15.9678 6.24869 16.3719 6.25003H26.2975C26.5721 6.24959 26.842 6.32174 27.0798 6.45917C27.3176 6.59661 27.5148 6.79444 27.6516 7.03265L43.943 36.6899C44.0778 36.9352 44.276 37.1398 44.5169 37.2823C44.7578 37.4249 45.0326 37.5 45.3125 37.5H73.4375C76.3373 37.5033 79.1174 38.6567 81.1678 40.7072C83.2183 42.7577 84.3717 45.5377 84.375 48.4375V60.9375C84.375 61.1427 84.4154 61.3459 84.4939 61.5355C84.5724 61.7251 84.6875 61.8973 84.8326 62.0424L93.5391 70.7489L91.1234 78.4791L94.1061 79.4114L96.8039 70.7785C96.889 70.5064 96.8979 70.2161 96.8298 69.9392C96.7616 69.6623 96.619 69.4093 96.4174 69.2076L87.5 60.2905V48.4375C87.5009 46.6601 87.1628 44.8988 86.5039 43.2481C94.299 39.9199 96.3051 35.1092 96.7434 33.6533C96.8316 33.3651 96.876 33.0652 96.875 32.7637C96.8705 31.9445 96.5411 31.1606 95.9593 30.5839C95.3775 30.0072 94.5907 29.6848 93.7715 29.6875ZM85.023 40.4793C84.522 39.7519 83.9541 39.0728 83.3268 38.451C86.2219 37.678 90.3844 36.085 93.7057 32.8903C93.3371 33.9664 91.6123 37.7434 85.023 40.4793ZM20.2822 9.68147L18.8836 16.6737L20.7918 18.5817L25 17.5301V9.37503H28.125V18.75C28.125 19.0985 28.0085 19.437 27.794 19.7116C27.5796 19.9863 27.2795 20.1813 26.9414 20.2659L20.6914 21.8284C20.4296 21.894 20.1553 21.8907 19.8952 21.8188C19.635 21.747 19.398 21.6089 19.207 21.4182L16.082 18.2932C15.9001 18.1113 15.7659 17.8873 15.6914 17.6411C15.6168 17.3949 15.6042 17.1341 15.6547 16.8819L17.2172 9.06937L20.2822 9.68147Z" fill="url(#paint0_linear)"/>
<defs>
<linearGradient id="paint0_linear" x1="50" y1="3.125" x2="50" y2="96.875" gradientUnits="userSpaceOnUse">
<stop stop-color="#03B898"/>
<stop offset="1" stop-color="#3DCC8E"/>
</linearGradient>
</defs>
</svg>
