<svg width="100" height="100" viewBox="0 0 100 100" fill="none" xmlns="http://www.w3.org/2000/svg">
<path d="M28.125 39.0625H31.25V42.1875H28.125V39.0625ZM35.9375 42.1875H39.0625V39.0625H35.9375V42.1875ZM93.9135 69.3295C95.8736 74.0485 96.8801 79.1089 96.875 84.2188V95.3125C96.875 95.7269 96.7104 96.1243 96.4174 96.4174C96.1243 96.7104 95.7269 96.875 95.3125 96.875H82.8125V93.75H93.75V84.2188C93.7628 79.5181 92.8431 74.8616 91.0443 70.5188C89.2454 66.1759 86.603 62.233 83.2701 58.9182L72.5223 48.1701C70.4829 46.1405 69.1882 43.482 68.8477 40.625H45.3125V87.5C45.3125 87.9144 45.1479 88.3118 44.8549 88.6049C44.5618 88.8979 44.1644 89.0625 43.75 89.0625C42.9215 89.0635 42.1272 89.393 41.5414 89.9789C40.9555 90.5647 40.626 91.359 40.625 92.1875V93.75H46.875V92.1875C46.8767 90.8022 47.3378 89.4567 48.186 88.3615C49.0342 87.2663 50.2217 86.4833 51.5625 86.1352V57.8125H54.6875V87.5C54.6875 87.9144 54.5229 88.3118 54.2299 88.6049C53.9368 88.8979 53.5394 89.0625 53.125 89.0625C52.2965 89.0635 51.5022 89.393 50.9164 89.9789C50.3305 90.5647 50.001 91.359 50 92.1875V93.75H60.9375V57.8125H64.0625V86.7783C65.0115 86.2268 66.0898 85.9366 67.1875 85.9375H70.3125V79.1514C70.3043 76.1427 70.8929 73.1623 72.0443 70.3826C73.1957 67.603 74.8869 65.0793 77.0201 62.9576L79.2299 65.1674C77.3877 66.9995 75.9272 69.1788 74.9329 71.5791C73.9387 73.9795 73.4304 76.5532 73.4375 79.1514V87.5C73.4375 87.9144 73.2729 88.3118 72.9799 88.6049C72.6868 88.8979 72.2894 89.0625 71.875 89.0625H67.1875C66.359 89.0635 65.5647 89.393 64.9789 89.9789C64.393 90.5647 64.0635 91.359 64.0625 92.1875V93.75H80.0781V96.875H4.68751C4.2731 96.875 3.87568 96.7104 3.58265 96.4174C3.28963 96.1243 3.12501 95.7269 3.12501 95.3125V57.5262C3.12287 55.3664 3.76227 53.2548 4.96211 51.459L8.06641 46.8033C8.92106 45.5237 9.37651 44.0192 9.37501 42.4805V42.3816C9.37318 41.1114 9.07716 39.8588 8.51014 38.7221C7.94312 37.5855 7.12052 36.5956 6.10684 35.8301L4.94571 34.9594C4.38159 34.5341 3.92364 33.9839 3.60775 33.352C3.29187 32.7201 3.12663 32.0236 3.12501 31.3172V31.2586C3.12531 30.0147 3.619 28.8217 4.49776 27.9413C5.37653 27.061 6.56861 26.5651 7.81251 26.5625H8.27833C9.34238 26.5639 10.3745 26.926 11.2063 27.5896L12.1744 28.3643C14.2308 30.0012 15.8905 32.082 17.0292 34.4509C18.1679 36.8198 18.7561 39.4156 18.75 42.0439C18.7533 45.503 17.7293 48.8852 15.8078 51.7615L13.2883 55.5422C13.033 55.9251 12.8356 56.3435 12.7023 56.784L9.71016 55.8789C9.93235 55.1446 10.2614 54.4471 10.6867 53.8086L13.2072 50.0281C14.7861 47.6649 15.6276 44.8861 15.625 42.0439C15.6301 39.8845 15.1469 37.7518 14.2114 35.8055C13.276 33.8591 11.9125 32.1495 10.2231 30.8045L9.25489 30.0299C8.97749 29.8085 8.63321 29.6878 8.27833 29.6875H7.81251C7.39719 29.6892 6.99948 29.8554 6.70658 30.1499C6.41368 30.4443 6.24948 30.8429 6.25001 31.2582V31.3168C6.25047 31.5383 6.30224 31.7567 6.40126 31.9548C6.50028 32.1529 6.64385 32.3254 6.82071 32.4588L7.98145 33.3295C9.3825 34.3869 10.5196 35.7544 11.3035 37.3248C12.0875 38.8953 12.497 40.626 12.5 42.3813V42.4801C12.502 44.636 11.8637 46.744 10.666 48.5367L7.56211 53.1924C6.70519 54.4752 6.24851 55.9835 6.25001 57.5262V66.0584C8.18671 62.5628 10.9331 59.5824 14.259 57.367L19.7875 53.6801C20.43 53.2523 20.9568 52.6724 21.321 51.9918C21.6852 51.3112 21.8755 50.5512 21.875 49.7793V29.6875C21.875 29.44 21.9338 29.196 22.0466 28.9757C22.1594 28.7554 22.3229 28.565 22.5236 28.4203C22.7244 28.2755 22.9567 28.1805 23.2013 28.1431C23.446 28.1057 23.696 28.1269 23.9309 28.2051L25.3039 28.6619C27.495 29.3931 29.3657 30.8595 30.599 32.8125H36.5885C37.1403 31.9366 37.8256 31.1524 38.6197 30.4883L40.6283 32.882C39.9071 33.4858 39.3183 34.2319 38.8986 35.0736C38.7688 35.3334 38.5692 35.5518 38.3221 35.7044C38.0751 35.857 37.7904 35.9377 37.5 35.9375H29.6875C29.3974 35.9375 29.1129 35.8567 28.8661 35.7041C28.6193 35.5516 28.4198 35.3333 28.29 35.0738C27.588 33.6704 26.4271 32.5493 25 31.8967V49.7793C25.0011 51.0656 24.6841 52.3323 24.0773 53.4665C23.4704 54.6007 22.5925 55.5673 21.5217 56.2801L15.9918 59.968C12.9941 61.964 10.5361 64.67 8.83656 67.8452C7.13698 71.0205 6.24846 74.5665 6.25001 78.168V93.75H28.125C28.124 92.9215 27.7945 92.1272 27.2086 91.5414C26.6228 90.9555 25.8285 90.626 25 90.625H20.3125C19.8981 90.625 19.5007 90.4604 19.2077 90.1674C18.9146 89.8743 18.75 89.4769 18.75 89.0625V84.7541C18.7552 82.8568 18.384 80.9774 17.658 79.2245C16.9319 77.4717 15.8654 75.8803 14.5201 74.5424L16.7299 72.3326C18.3662 73.96 19.6635 75.8958 20.5467 78.028C21.4298 80.1601 21.8813 82.4463 21.875 84.7541V87.5H25C25.5271 87.4997 26.0521 87.5662 26.5625 87.6979V70.3125H29.6875V89.6227C30.6951 90.7613 31.2509 92.2295 31.25 93.75H34.375V70.3125H37.5V92.1875C37.5018 90.8023 37.9629 89.4567 38.8111 88.3615C39.6593 87.2663 40.8467 86.4833 42.1875 86.1352V25H39.0625C38.7567 25 38.4576 24.9102 38.2024 24.7419C37.9471 24.5736 37.7468 24.334 37.6264 24.0529L32.9389 13.1154C32.792 12.7727 32.7725 12.3886 32.884 12.0328C32.9955 11.6769 33.2306 11.3727 33.5469 11.175L39.9199 7.19199L41.576 9.84199L36.3387 13.1152L40.0928 21.875H42.1875V15.625C42.1875 15.3824 42.244 15.1431 42.3525 14.9262L45.4775 8.67617L48.2725 10.0738L45.3125 15.9939V31.25H68.75V15.9939L65.79 10.0738L68.585 8.67617L71.71 14.9262C71.8185 15.1431 71.875 15.3824 71.875 15.625V21.875H73.9697L77.7238 13.1152L68.6395 7.4375C67.3979 6.66116 65.9631 6.24966 64.4988 6.25H49.5637C48.0994 6.24966 46.6646 6.66116 45.423 7.4375L44.0168 8.31641L42.3604 5.66641L43.7666 4.7875C45.5047 3.70048 47.5136 3.12437 49.5637 3.125H64.4988C66.5488 3.1244 68.5576 3.70052 70.2957 4.7875L80.5156 11.1742C80.8319 11.3719 81.067 11.6761 81.1785 12.032C81.29 12.3879 81.2705 12.7719 81.1236 13.1146L76.4361 24.0521C76.3158 24.3334 76.1156 24.5731 75.8603 24.7416C75.605 24.9101 75.3059 24.9999 75 25H71.875V39.0625C71.8715 40.3439 72.1222 41.6134 72.6126 42.7973C73.103 43.9812 73.8233 45.0561 74.7318 45.9598L82.6277 53.8557C83.8354 46.3701 82.3285 38.8799 78.4143 33.3764C78.2703 33.1742 78.1766 32.9407 78.1408 32.6952C78.1051 32.4497 78.1283 32.1991 78.2086 31.9643C78.2889 31.7295 78.424 31.5173 78.6026 31.3451C78.7813 31.1728 78.9984 31.0457 79.2359 30.974L82.5094 29.9857C83.5514 29.669 84.6535 29.603 85.7258 29.7931C86.7982 29.9832 87.8104 30.4239 88.6801 31.0795C89.5199 31.7137 90.2189 32.5153 90.7328 33.4338C91.2467 34.3522 91.5642 35.3673 91.6652 36.4148L91.7434 36.4773C95.182 39.1994 96.4285 43.9807 94.8754 48.1209C96.5619 51.1092 97.0666 54.2475 96.6137 58.709C96.4163 60.3447 96.0589 61.9571 95.5467 63.523L92.5631 62.5936C93.0126 61.2273 93.3279 59.8205 93.5047 58.3932C93.9211 54.2852 93.4447 51.6729 91.8055 49.0768C91.665 48.8542 91.583 48.5998 91.567 48.3371C91.5511 48.0744 91.6018 47.8119 91.7145 47.574C93.1381 44.568 92.3334 40.9314 89.8004 38.9268L89.169 38.4264C88.9844 38.2801 88.8352 38.0939 88.7327 37.8819C88.6302 37.6698 88.577 37.4373 88.577 37.2018C88.5883 36.5032 88.4345 35.8118 88.128 35.1839C87.8216 34.556 87.3712 34.0093 86.8135 33.5885C86.3343 33.2256 85.7761 32.981 85.1845 32.8748C84.5929 32.7686 83.9845 32.8036 83.409 32.9771L82.1264 33.3645C85.9752 39.8736 87.1459 48.317 85.2916 56.5213L85.4768 56.7064C89.0947 60.316 91.962 64.6062 93.9135 69.3295ZM68.75 34.375H45.3125V37.5H68.75V34.375ZM48.4375 25H51.5625C52.1136 24.9994 52.6548 24.853 53.1311 24.5758C53.6074 24.2985 54.0019 23.9002 54.2746 23.4213C53.5309 23.343 52.8424 22.9923 52.3417 22.4369C51.841 21.8814 51.5635 21.1603 51.5625 20.4125V18.65C51.5634 17.848 51.8824 17.0791 52.4495 16.512C53.0166 15.9449 53.7855 15.6259 54.5875 15.625H57.9125C58.7145 15.6259 59.4834 15.9449 60.0505 16.512C60.6176 17.0791 60.9366 17.848 60.9375 18.65V20.4125C60.9366 21.1603 60.659 21.8814 60.1583 22.4369C59.6576 22.9923 58.9691 23.343 58.2254 23.4213C58.4981 23.9002 58.8926 24.2985 59.3689 24.5758C59.8452 24.853 60.3864 24.9994 60.9375 25H64.0625V28.125H60.9375C60.0503 28.1253 59.1733 27.9363 58.3649 27.5707C57.5566 27.2051 56.8356 26.6712 56.25 26.0047C55.6644 26.6712 54.9434 27.2051 54.1351 27.5707C53.3267 27.9363 52.4497 28.1253 51.5625 28.125H48.4375V25ZM54.6875 20.3125H57.8125V18.75H54.6875V20.3125ZM51.5625 12.5H48.4375V15.625H51.5625V12.5ZM64.0625 12.5H60.9375V15.625H64.0625V12.5Z" fill="url(#paint0_linear)"/>
<defs>
<linearGradient id="paint0_linear" x1="50" y1="3.125" x2="50" y2="96.875" gradientUnits="userSpaceOnUse">
<stop stop-color="#03B898"/>
<stop offset="1" stop-color="#3DCC8E"/>
</linearGradient>
</defs>
</svg>
