<svg width="219" height="50" viewBox="0 0 219 50" fill="none" xmlns="http://www.w3.org/2000/svg">
<rect width="50" height="50" rx="7" fill="#0D47A1"/>
<g clip-path="url(#clip0)">
<path d="M29.2179 25.7496C28.0929 23.9946 26.177 22.9467 24.0927 22.9467C22.0083 22.9467 20.0924 23.9946 18.9676 25.7496L16.2569 29.9784C15.8071 30.6799 15.5996 31.4905 15.6566 32.3219C15.7137 33.1535 16.0301 33.9279 16.5716 34.5619C17.1135 35.1954 17.8295 35.6283 18.6422 35.8141C19.4549 35.9999 20.2881 35.9205 21.0514 35.585L21.1025 35.5623C23.0232 34.7349 25.218 34.7426 27.1337 35.585C27.6279 35.8023 28.1515 35.9121 28.6798 35.9121C28.9671 35.9121 29.256 35.8795 29.5423 35.8143C30.3551 35.6287 31.0711 35.1957 31.6131 34.5621C32.1548 33.9287 32.4715 33.1541 32.5287 32.3223C32.5859 31.4905 32.3784 30.6801 31.9286 29.9782L29.2179 25.7496Z" fill="#F5F9FF"/>
<path d="M16.9871 25.7441C17.7935 25.4343 18.4061 24.7845 18.7121 23.9142C19.0033 23.086 18.9795 22.151 18.6447 21.2813C18.3098 20.4121 17.7006 19.7025 16.9293 19.2831C16.119 18.8427 15.2289 18.771 14.4238 19.0813C12.8041 19.7041 12.0608 21.7056 12.767 23.5441C13.3312 25.0075 14.6471 25.9312 15.9775 25.9312C16.3172 25.9312 16.6578 25.8709 16.9871 25.7441Z" fill="#F5F9FF"/>
<path d="M22.2467 22.431C24.2716 22.431 25.9189 20.5542 25.9189 18.2472C25.9189 15.9397 24.2716 14.0625 22.2467 14.0625C20.2221 14.0625 18.5749 15.9397 18.5749 18.2472C18.5749 20.5542 20.2221 22.431 22.2467 22.431Z" fill="#F5F9FF"/>
<path d="M28.5886 23.4589H28.5888C28.9003 23.5623 29.2181 23.6117 29.5345 23.6117C31.0112 23.6117 32.4503 22.5369 32.9994 20.8851C33.3156 19.9343 33.2948 18.9289 32.9408 18.0544C32.5704 17.1389 31.884 16.4744 31.0077 16.1831C30.1313 15.8919 29.1835 16.0134 28.3388 16.5249C27.5318 17.0136 26.9134 17.8064 26.5976 18.7573C25.9309 20.763 26.8242 22.8722 28.5886 23.4589Z" fill="#F5F9FF"/>
<path d="M36.322 22.9706L36.3214 22.97C34.9251 21.9385 32.8367 22.3856 31.6658 23.9672C30.496 25.5495 30.6789 27.6768 32.0732 28.709C32.5817 29.0857 33.1825 29.2658 33.7974 29.2658C34.8692 29.2658 35.9842 28.7187 36.7296 27.7128C37.8992 26.1305 37.7165 24.0032 36.322 22.9706Z" fill="#F5F9FF"/>
</g>
<path d="M80.5017 14.184C80.8644 13.9707 81.4084 13.768 82.1337 13.576C82.8804 13.384 83.6271 13.288 84.3737 13.288C85.4404 13.288 86.3791 13.448 87.1897 13.768C88.0217 14.0667 88.5551 14.5467 88.7897 15.208C89.1737 16.3173 89.5897 17.608 90.0377 19.08C90.4857 20.552 90.9337 22.0773 91.3817 23.656C91.8297 25.2133 92.2671 26.76 92.6937 28.296C93.1204 29.8107 93.4937 31.1547 93.8137 32.328C93.5577 32.6267 93.1737 32.8613 92.6617 33.032C92.1497 33.224 91.5417 33.32 90.8377 33.32C90.3257 33.32 89.8884 33.2773 89.5257 33.192C89.1844 33.1067 88.8964 32.9787 88.6617 32.808C88.4484 32.6373 88.2671 32.4133 88.1177 32.136C87.9897 31.8587 87.8724 31.5387 87.7657 31.176L87.1897 28.968H81.3977C81.2271 29.608 81.0564 30.2693 80.8857 30.952C80.7151 31.6347 80.5444 32.296 80.3737 32.936C80.0751 33.0427 79.7551 33.128 79.4137 33.192C79.0937 33.2773 78.6991 33.32 78.2297 33.32C77.1417 33.32 76.3311 33.1387 75.7977 32.776C75.2857 32.392 75.0297 31.8693 75.0297 31.208C75.0297 30.9093 75.0724 30.6107 75.1577 30.312C75.2431 30.0133 75.3391 29.6613 75.4457 29.256C75.5951 28.68 75.7977 27.9653 76.0537 27.112C76.3311 26.2587 76.6297 25.3413 76.9497 24.36C77.2697 23.3573 77.6111 22.3333 77.9737 21.288C78.3364 20.2427 78.6777 19.2613 78.9977 18.344C79.3177 17.4053 79.6057 16.5733 79.8617 15.848C80.1391 15.1227 80.3524 14.568 80.5017 14.184ZM84.3417 18.312C84.0431 19.208 83.7017 20.2107 83.3177 21.32C82.9551 22.408 82.6244 23.5173 82.3257 24.648H86.2937C85.9951 23.496 85.6857 22.376 85.3657 21.288C85.0671 20.1787 84.7897 19.1867 84.5337 18.312H84.3417ZM103.604 28.84C103.839 28.8827 104.127 28.9253 104.468 28.968C104.81 28.9893 105.13 29 105.428 29C106.154 29 106.815 28.8933 107.412 28.68C108.031 28.4667 108.554 28.136 108.98 27.688C109.428 27.24 109.77 26.664 110.004 25.96C110.26 25.2347 110.388 24.3707 110.388 23.368C110.388 21.448 109.94 20.008 109.044 19.048C108.148 18.0667 106.954 17.576 105.46 17.576C105.162 17.576 104.852 17.5867 104.532 17.608C104.234 17.6293 103.924 17.6613 103.604 17.704V28.84ZM105.396 33.512C105.034 33.512 104.618 33.5013 104.148 33.48C103.679 33.4587 103.188 33.416 102.676 33.352C102.186 33.288 101.684 33.2027 101.172 33.096C100.682 33.0107 100.223 32.8827 99.7962 32.712C98.6229 32.264 98.0362 31.4853 98.0362 30.376V15.432C98.0362 14.984 98.1536 14.6427 98.3882 14.408C98.6442 14.152 98.9856 13.9493 99.4122 13.8C100.33 13.5013 101.3 13.3093 102.324 13.224C103.348 13.1173 104.266 13.064 105.076 13.064C106.74 13.064 108.244 13.2667 109.588 13.672C110.954 14.0773 112.116 14.7067 113.076 15.56C114.058 16.392 114.815 17.448 115.348 18.728C115.882 20.008 116.148 21.5227 116.148 23.272C116.148 24.9787 115.892 26.472 115.38 27.752C114.868 29.0107 114.132 30.0773 113.172 30.952C112.234 31.8053 111.103 32.4453 109.78 32.872C108.458 33.2987 106.996 33.512 105.396 33.512ZM119.989 23.272C119.989 21.608 120.245 20.136 120.757 18.856C121.29 17.576 122.005 16.5093 122.901 15.656C123.818 14.7813 124.885 14.12 126.101 13.672C127.338 13.224 128.671 13 130.101 13C131.53 13 132.853 13.224 134.069 13.672C135.306 14.12 136.383 14.7813 137.301 15.656C138.218 16.5093 138.933 17.576 139.445 18.856C139.978 20.136 140.245 21.608 140.245 23.272C140.245 24.936 139.989 26.4187 139.477 27.72C138.965 29 138.25 30.0773 137.333 30.952C136.437 31.8053 135.37 32.456 134.133 32.904C132.895 33.352 131.551 33.576 130.101 33.576C128.65 33.576 127.306 33.352 126.069 32.904C124.831 32.4347 123.765 31.7627 122.869 30.888C121.973 30.0133 121.269 28.936 120.757 27.656C120.245 26.376 119.989 24.9147 119.989 23.272ZM125.749 23.272C125.749 25.2133 126.143 26.664 126.933 27.624C127.722 28.584 128.778 29.064 130.101 29.064C131.445 29.064 132.511 28.584 133.301 27.624C134.09 26.664 134.485 25.2133 134.485 23.272C134.485 21.352 134.09 19.912 133.301 18.952C132.533 17.992 131.477 17.512 130.133 17.512C128.81 17.512 127.743 17.992 126.933 18.952C126.143 19.8907 125.749 21.3307 125.749 23.272ZM143.59 18.088C143.441 17.8533 143.302 17.5333 143.174 17.128C143.046 16.7227 142.982 16.296 142.982 15.848C142.982 15.016 143.164 14.4187 143.526 14.056C143.91 13.6933 144.401 13.512 144.998 13.512H158.95C159.1 13.7467 159.238 14.0667 159.366 14.472C159.494 14.8773 159.558 15.304 159.558 15.752C159.558 16.584 159.366 17.1813 158.982 17.544C158.62 17.9067 158.14 18.088 157.542 18.088H153.99V32.872C153.756 32.936 153.382 33 152.87 33.064C152.38 33.128 151.889 33.16 151.398 33.16C150.908 33.16 150.47 33.1173 150.086 33.032C149.724 32.968 149.414 32.84 149.158 32.648C148.902 32.456 148.71 32.1893 148.582 31.848C148.454 31.5067 148.39 31.0587 148.39 30.504V18.088H143.59ZM163.284 18.088C163.135 17.8533 162.996 17.5333 162.868 17.128C162.74 16.7227 162.676 16.296 162.676 15.848C162.676 15.016 162.857 14.4187 163.22 14.056C163.604 13.6933 164.095 13.512 164.692 13.512H178.644C178.793 13.7467 178.932 14.0667 179.06 14.472C179.188 14.8773 179.252 15.304 179.252 15.752C179.252 16.584 179.06 17.1813 178.676 17.544C178.313 17.9067 177.833 18.088 177.236 18.088H173.684V32.872C173.449 32.936 173.076 33 172.564 33.064C172.073 33.128 171.583 33.16 171.092 33.16C170.601 33.16 170.164 33.1173 169.78 33.032C169.417 32.968 169.108 32.84 168.852 32.648C168.596 32.456 168.404 32.1893 168.276 31.848C168.148 31.5067 168.084 31.0587 168.084 30.504V18.088H163.284ZM182.978 18.088C182.828 17.8533 182.69 17.5333 182.562 17.128C182.434 16.7227 182.37 16.296 182.37 15.848C182.37 15.016 182.551 14.4187 182.914 14.056C183.298 13.6933 183.788 13.512 184.386 13.512H198.338C198.487 13.7467 198.626 14.0667 198.754 14.472C198.882 14.8773 198.946 15.304 198.946 15.752C198.946 16.584 198.754 17.1813 198.37 17.544C198.007 17.9067 197.527 18.088 196.93 18.088H193.378V32.872C193.143 32.936 192.77 33 192.258 33.064C191.767 33.128 191.276 33.16 190.786 33.16C190.295 33.16 189.858 33.1173 189.474 33.032C189.111 32.968 188.802 32.84 188.546 32.648C188.29 32.456 188.098 32.1893 187.97 31.848C187.842 31.5067 187.778 31.0587 187.778 30.504V18.088H182.978ZM203.255 16.584C203.255 15.6667 203.522 14.9413 204.055 14.408C204.588 13.8747 205.314 13.608 206.231 13.608H216.791C216.94 13.8427 217.068 14.152 217.175 14.536C217.303 14.92 217.367 15.3253 217.367 15.752C217.367 16.5627 217.186 17.1387 216.823 17.48C216.482 17.8213 216.023 17.992 215.447 17.992H208.695V20.968H215.895C216.044 21.2027 216.172 21.512 216.279 21.896C216.407 22.2587 216.471 22.6533 216.471 23.08C216.471 23.8907 216.3 24.4667 215.959 24.808C215.618 25.1493 215.159 25.32 214.583 25.32H208.695V28.68H216.919C217.068 28.9147 217.196 29.224 217.303 29.608C217.431 29.992 217.495 30.3973 217.495 30.824C217.495 31.6347 217.314 32.2213 216.951 32.584C216.61 32.9253 216.151 33.096 215.575 33.096H206.231C205.314 33.096 204.588 32.8293 204.055 32.296C203.522 31.7627 203.255 31.0373 203.255 30.12V16.584Z" fill="#F5F9FF"/>
<defs>
<clipPath id="clip0">
<rect x="12.5" y="12.5" width="25" height="25" fill="white"/>
</clipPath>
</defs>
</svg>
